# xmcd
# Copyright (C) 1995-1998 Ti Kan
#
# Track frame offsets:
#       150
#       21024
#       39789
#       58604
#       77814
#       92882
#       112910
#       129210
#       146481
#       166845
#       188227
#
# Disc length: 2664 seconds
#
# Revision: 2
# Processed by: cddbd v1.5.1PL0 Copyright (c) Steve Scherf et al.
# Submitted via: CD-Transfer v1.0
#
DISCID=800a660b
DTITLE=Nota Bene - Licht Echt
DYEAR=2005
DGENRE=
TTITLE0=Schwerelos
TTITLE1=L'enfant
TTITLE2=Laisse Fondre La Vie
TTITLE3=Tropf
TTITLE4=Calm Down
TTITLE5=Universum
TTITLE6=Vacances En Provence
TTITLE7=Wulcherand
TTITLE8=Flying
TTITLE9=Blue Angel
TTITLE10=Pilot
EXTD=
EXTT0=
EXTT1=
EXTT2=
EXTT3=
EXTT4=
EXTT5=
EXTT6=
EXTT7=
EXTT8=
EXTT9=
EXTT10=
PLAYORDER=
